<svg width="26" height="33" viewBox="0 0 26 33" fill="none" xmlns="http://www.w3.org/2000/svg">
<path d="M0.0541992 12.9234C0.0541992 5.86636 5.7742 0.146362 12.8302 0.146362C19.8872 0.146362 25.6072 5.86636 25.6072 12.9234C25.6072 14.1864 25.4212 15.4054 25.0802 16.5604C23.2612 23.9174 12.7732 32.1464 12.7732 32.1464C12.7732 32.1464 0.924199 22.8554 0.227199 15.1884L0.258199 15.1824C0.126199 14.4504 0.0541992 13.6954 0.0541992 12.9234ZM12.6562 15.7694C15.5432 15.7694 17.8832 13.4284 17.8832 10.5414C17.8832 7.65436 15.5432 5.31436 12.6562 5.31436C9.7702 5.31436 7.4302 7.65436 7.4302 10.5414C7.4302 13.4284 9.7702 15.7694 12.6562 15.7694Z" fill="#4B9200"/>
</svg>
