<svg width="80" height="80" viewBox="0 0 80 80" fill="none" xmlns="http://www.w3.org/2000/svg">
<circle cx="39.999" cy="40" r="39" fill="white" stroke="#4B9200" stroke-width="2"/>
<path d="M64.7491 50.5338C67.0927 46.0938 68.999 40.6492 68.999 34.8465C68.999 31.9318 68.0696 28.6184 66.5128 25.9835C65.1516 23.6795 62.6273 20.7028 58.3291 19.6053C52.8895 18.2166 47.3782 19.5117 42.9497 20.5524C41.3493 20.9285 39.8376 21.2837 38.5428 21.4594C35.639 21.853 32.5711 21.7954 29.9339 21.6956H29.9322C29.5195 21.6799 29.1164 21.6633 28.7273 21.6473C27.0611 21.5784 23.2238 21.5123 23.2238 21.5123C23.0144 20.6402 22.537 19.9258 21.9411 19.596C21.6886 19.4586 21.413 19.3889 21.1345 19.3921C20.856 19.3954 20.5816 19.4714 20.3315 19.6146C19.5119 20.0479 19.1189 21.0108 19.3046 22.0979C17.9914 22.7583 16.7083 24.0727 15.9302 25.1064C15.2621 25.9939 14.6955 27.395 14.1474 28.7501C13.5893 30.1301 13.0123 31.5571 12.4349 32.1334C12.2935 32.2733 12.1685 32.4342 12.0631 32.6121C12.0612 32.6121 12.0594 32.6109 12.0574 32.6105C11.9367 32.5821 11.8122 32.5835 11.6919 32.6146C11.5717 32.6456 11.4583 32.7057 11.3591 32.7909C11.2599 32.8761 11.177 32.9846 11.1158 33.1094C11.0546 33.2341 11.0165 33.3725 11.0037 33.5155C10.991 33.6585 11.0041 33.803 11.042 33.9398C11.0799 34.0766 11.1419 34.2026 11.2241 34.3098C11.3062 34.4169 11.4065 34.5029 11.5188 34.5621C11.631 34.6214 11.7526 34.6526 11.8758 34.6537C11.98 35.0329 12.1209 35.397 12.2955 35.739C13.4575 38.0738 15.2956 39.5253 16.9174 40.8057C17.8114 41.5116 18.6557 42.1784 19.3098 42.9231C19.8005 43.5013 20.2274 44.1489 20.5805 44.8507C20.5844 44.8597 20.5895 44.8673 20.5938 44.876C21.2577 46.1729 21.7844 47.7551 21.8828 49.2662C22.0071 51.1754 22.3013 56.3304 22.3938 57.9588C22.0743 58.0774 21.7746 58.2591 21.5076 58.4959C21.309 58.6712 21.1633 58.9157 21.0915 59.194C21.0198 59.4723 21.0257 59.77 21.1084 60.0442C21.1869 60.3239 21.3396 60.5673 21.5445 60.7391C21.7493 60.911 21.9956 61.0023 22.2478 61H27.6791C27.8541 61.0002 28.027 60.9557 28.1856 60.8695C28.3443 60.7833 28.4848 60.6576 28.5973 60.5012C29.7985 58.834 32.7948 54.5371 34.6909 50.6385C42.0313 50.6301 47.0445 50.3192 49.9687 49.6886C50.4043 52.9029 50.9795 56.5655 51.1897 57.8864C51.0083 57.9855 50.8366 58.1075 50.6779 58.2502C50.4606 58.4457 50.3012 58.7157 50.222 59.0224C50.1428 59.329 50.1478 59.6568 50.2363 59.96C50.3247 60.2631 50.4922 60.5264 50.7153 60.7128C50.9384 60.8993 51.2058 60.9996 51.4802 60.9997H56.5711C56.8722 60.9993 57.1642 60.8786 57.3984 60.6576C59.0773 59.0679 62.1493 55.4367 64.711 50.6063C64.7252 50.5832 64.7379 50.559 64.7491 50.5338ZM28.8723 35.2565C27.2302 39.2734 24.3396 42.5228 21.2605 43.8481C20.907 43.2025 20.4946 42.6034 20.0306 42.0613C19.3104 41.2413 18.429 40.5455 17.4957 39.8086C15.8911 38.5413 14.2313 37.2309 13.1878 35.1342C12.5526 33.8579 12.7899 33.3637 13.1055 33.0488C13.8512 32.3046 14.4484 30.8278 15.0807 29.2641C15.5981 27.9844 16.1332 26.6612 16.7054 25.9014C17.398 24.9813 18.6295 23.709 19.8213 23.1511C19.9384 23.0961 20.0437 23.0117 20.1297 22.9038C20.7812 24.0154 22.3329 23.8515 22.7223 22.8393C22.7495 22.7666 22.7696 22.6906 22.7824 22.6127C24.4225 22.8617 27.0358 22.7819 28.691 22.8507C28.9716 22.8623 29.2609 22.8741 29.5538 22.8856C30.7609 26.8422 30.5228 31.2191 28.8723 35.2565ZM60.523 46.2852C59.5615 46.0767 54.7889 45.2342 50.7862 47.9726C50.5958 46.4624 50.4659 45.2065 50.4659 44.5927C50.4659 44.433 50.4116 44.2798 50.3149 44.1669C50.2181 44.054 50.0869 43.9906 49.9501 43.9906C49.8134 43.9906 49.6822 44.054 49.5854 44.1669C49.4887 44.2798 49.4344 44.433 49.4344 44.5927C49.4344 45.3055 49.5902 46.7746 49.8111 48.4983C47.3137 49.0429 43.1953 49.346 37.292 49.418C38.4672 48.585 39.4043 47.3893 40.0887 45.8341C41.0418 43.6698 41.463 40.8499 41.3069 37.6791C41.1311 34.1069 38.7793 29.2953 36.8896 25.4295C36.4519 24.5343 36.0328 23.6769 35.6838 22.918C36.6777 22.8705 37.677 22.7889 38.6614 22.6554C39.9988 22.4742 41.5309 22.114 43.1528 21.7322C47.4867 20.7137 52.8801 19.446 58.1081 20.7811C65.2908 22.6156 67.9675 30.3821 67.9675 34.8465C67.9675 39.9849 66.4033 44.8407 64.3849 48.9204C63.7924 47.886 62.5575 46.727 60.523 46.2852Z" fill="#4B9200"/>
<path d="M17.8925 28.1939C15.5034 27.2701 14.1138 29.8646 15.6342 31.3883C16.4657 32.221 17.256 34.1507 19.0626 33.9906C21.9329 33.7369 21.6686 29.6525 17.8925 28.1939ZM16.8102 30.7043C16.6685 30.7043 16.53 30.6617 16.4122 30.5818C16.2944 30.502 16.2026 30.3886 16.1484 30.2558C16.0941 30.1231 16.08 29.977 16.1076 29.8361C16.1352 29.6952 16.2035 29.5658 16.3036 29.4642C16.4038 29.3626 16.5315 29.2934 16.6704 29.2653C16.8094 29.2373 16.9534 29.2517 17.0843 29.3067C17.2152 29.3617 17.3271 29.4548 17.4058 29.5742C17.4845 29.6937 17.5265 29.8342 17.5265 29.9778C17.5265 30.1705 17.451 30.3552 17.3167 30.4915C17.1823 30.6277 17.0002 30.7042 16.8102 30.7043Z" fill="#4B9200"/>
<path d="M40.2525 51.1105C40.2461 51.0787 40.2312 51.0504 40.2103 51.0304C40.1893 51.0104 40.1635 50.9996 40.1371 51C39.5717 51.0074 36.5787 51.0461 35.3098 51.0523C35.2903 51.0522 35.2711 51.0584 35.254 51.0701C35.237 51.0818 35.2226 51.0988 35.2124 51.1193C34.3967 52.7222 32.9659 55.2164 32.021 56.8401C32.0054 56.8669 31.9977 56.8994 31.9992 56.9323C32.0007 56.9652 32.0112 56.9964 32.0291 57.0209L33.3495 58.8507L33.3354 58.8768C33.3307 58.887 33.3248 58.8972 33.3201 58.9073C33.2171 59.116 33.1609 59.3549 33.1573 59.5993C33.1537 59.8437 33.2029 60.0849 33.2997 60.2981C33.3966 60.5112 33.5376 60.6886 33.7083 60.812C33.8789 60.9354 34.0731 61.0003 34.2708 61H39.8858C40.0343 60.9999 40.1813 60.9631 40.3181 60.8917C40.455 60.8203 40.5789 60.7158 40.6826 60.5843C40.7863 60.4528 40.8677 60.297 40.9219 60.1261C40.9762 59.9552 41.0023 59.7725 40.9987 59.5889C40.9799 58.6429 40.9305 57.1577 40.8083 55.546C40.7071 54.0532 40.5214 52.5711 40.2525 51.1105Z" fill="#4B9200"/>
<path d="M67.467 47.0889C67.4595 47.0636 67.4454 47.0415 67.4269 47.0256C67.4083 47.0097 67.386 47.0008 67.363 47.0001C67.3399 46.9993 67.3172 47.0067 67.2979 47.0213C67.2785 47.0359 67.2635 47.0569 67.2546 47.0818C67.1021 47.5141 66.931 47.9372 66.7419 48.3495C65.1609 51.8023 63.2435 55.0311 61.0276 57.9719C61.0087 57.9966 60.9985 58.0286 60.999 58.0617C60.9995 58.0947 61.0107 58.1264 61.0303 58.1502L61.4134 58.6212C61.3009 58.7766 61.2064 58.9486 61.1326 59.1328C61.0533 59.3363 61.0194 59.5599 61.0341 59.7828C61.0488 60.0057 61.1116 60.2206 61.2167 60.4076C61.3103 60.5855 61.4408 60.733 61.5962 60.8366C61.7516 60.9401 61.9269 60.9963 62.1059 61H67.9219C68.0655 60.9999 68.2076 60.9664 68.34 60.9014C68.4723 60.8364 68.5922 60.7412 68.6925 60.6214C68.7928 60.5017 68.8716 60.3598 68.9242 60.204C68.9768 60.0483 69.0021 59.8819 68.9987 59.7145C68.9412 57.0216 68.6741 51.0536 67.467 47.0889Z" fill="#4B9200"/>
</svg>
